<svg width="337" height="164" xmlns="http://www.w3.org/2000/svg" xmlns:svg="http://www.w3.org/2000/svg">
 <!-- Created with SVG-edit - https://github.com/SVG-Edit/svgedit-->
 <defs>
  <radialGradient id="svg_56" spreadMethod="pad">
   <stop offset="0" stop-color="#e5e5e5" stop-opacity="0.996094"/>
   <stop offset="0.967468" stop-color="#7f7f7f" stop-opacity="0.996094"/>
  </radialGradient>
 </defs>
 <g class="layer">
  <title>Layer 1</title>
  <rect fill="url(#svg_56)" height="164.000001" id="svg_55" stroke="#000000" stroke-dasharray="null" stroke-linecap="null" stroke-linejoin="null" width="337" x="0" y="0"/>
  <line fill="none" id="svg_7" stroke="#000000" stroke-width="5" x1="121" x2="121" y1="22.000001" y2="157.003074"/>
  <rect fill="none" height="56" id="svg_24" stroke="#000000" stroke-dasharray="null" stroke-linecap="null" stroke-linejoin="null" stroke-width="5" width="82.000002" x="121" y="21.749238"/>
  <path d="m184,151.000001c74.06912,-138.01063 74.06912,-138.01063 73.43059,-138.50003c-0.63852,-0.4894 58.10595,137.52123 55.55185,137.52123c-2.55411,0 -61.29859,-65.57952 -61.29859,-65.57952c0,0 -67.68385,66.55832 -67.68385,66.55832z" fill="none" id="svg_25" stroke="#000000" stroke-dasharray="null" stroke-linecap="null" stroke-linejoin="null" stroke-width="5"/>
  <path d="m230.46829,90.181171c26.43565,-49.25671 26.43565,-49.25671 26.20776,-49.43137c-0.2279,-0.17467 20.73831,49.08203 19.82674,49.08203c-0.91158,0 -21.87778,-23.40567 -21.87778,-23.40567c0,0 -24.15672,23.75501 -24.15672,23.75501z" fill="#ffffff" id="svg_26" stroke="#000000" stroke-dasharray="null" stroke-linecap="null" stroke-linejoin="null" stroke-width="2"/>
  <rect fill="none" height="56" id="svg_46" stroke="#000000" stroke-dasharray="null" stroke-linecap="null" stroke-linejoin="null" stroke-width="5" width="82.000002" x="22" y="21.749238"/>
  <rect fill="#ffffff" height="22.048783" id="svg_58" stroke="#000000" stroke-dasharray="null" stroke-linecap="null" stroke-linejoin="null" stroke-width="2" width="43.000001" x="141.5" y="37.475602"/>
  <rect fill="#ffffff" height="22.048783" id="svg_59" stroke="#000000" stroke-dasharray="null" stroke-linecap="null" stroke-linejoin="null" stroke-width="2" width="43.000001" x="40.5" y="37.47561"/>
  <line fill="none" id="svg_63" stroke="#000000" stroke-width="5" x1="104" x2="104" y1="22.49846" y2="157.501532"/>
 </g>
</svg>